<?xml version="1.0" encoding="UTF-8" standalone="no"?>
<!-- Created with Inkscape (http://www.inkscape.org/) -->

<svg
   width="210mm"
   height="297mm"
   viewBox="0 0 210 297"
   version="1.1"
   id="svg5"
   inkscape:version="1.1 (c4e8f9ed74, 2021-05-24)"
   sodipodi:docname="star-fill.svg"
   xmlns:inkscape="http://www.inkscape.org/namespaces/inkscape"
   xmlns:sodipodi="http://sodipodi.sourceforge.net/DTD/sodipodi-0.dtd"
   xmlns="http://www.w3.org/2000/svg"
   xmlns:svg="http://www.w3.org/2000/svg">
  <sodipodi:namedview
     id="namedview7"
     pagecolor="#ffffff"
     bordercolor="#666666"
     borderopacity="1.0"
     inkscape:pageshadow="2"
     inkscape:pageopacity="0.0"
     inkscape:pagecheckerboard="0"
     inkscape:document-units="mm"
     showgrid="false"
     showguides="true"
     inkscape:guide-bbox="true"
     inkscape:zoom="10.592223"
     inkscape:cx="286.76701"
     inkscape:cy="360.40595"
     inkscape:window-width="1920"
     inkscape:window-height="1010"
     inkscape:window-x="0"
     inkscape:window-y="0"
     inkscape:window-maximized="1"
     inkscape:current-layer="layer1" />
  <defs
     id="defs2">
    <marker
       style="overflow:visible"
       id="Arrow1Lstart"
       refX="0.0"
       refY="0.0"
       orient="auto"
       inkscape:stockid="Arrow1Lstart"
       inkscape:isstock="true">
      <path
         transform="scale(0.8) translate(12.5,0)"
         style="fill-rule:evenodd;fill:context-stroke;stroke:context-stroke;stroke-width:1.0pt"
         d="M 0.0,0.0 L 5.0,-5.0 L -12.5,0.0 L 5.0,5.0 L 0.0,0.0 z "
         id="path2872" />
    </marker>
  </defs>
  <g
     inkscape:label="Calque 1"
     inkscape:groupmode="layer"
     id="layer1">
    <path
       sodipodi:type="star"
       style="fill:#ffcc00;stroke:#000000;stroke-width:1.37953;stroke-linecap:round;stroke-linejoin:round;stroke-miterlimit:4;stroke-dasharray:none;stroke-opacity:1"
       id="path5186"
       inkscape:flatsided="false"
       sodipodi:sides="5"
       sodipodi:cx="283.60901"
       sodipodi:cy="365.89468"
       sodipodi:r1="13.479602"
       sodipodi:r2="6.335413"
       sodipodi:arg1="-0.26179939"
       sodipodi:arg2="0.36651914"
       inkscape:rounded="0.05"
       inkscape:randomized="0"
       d="m 296.6293,362.40591 c 0.11837,0.44174 -6.94178,5.33223 -7.10567,5.75918 -0.16389,0.42695 1.81044,8.78546 1.4269,9.03454 -0.38355,0.24908 -7.21639,-4.95428 -7.67309,-4.97822 -0.4567,-0.0239 -7.79601,4.4367 -8.15142,4.14889 -0.35541,-0.2878 2.48181,-8.39415 2.36345,-8.83589 -0.11836,-0.44174 -6.62864,-6.04343 -6.46475,-6.47038 0.16389,-0.42695 8.75023,-0.23359 9.13378,-0.48267 0.38354,-0.24908 3.69928,-8.17174 4.15598,-8.1478 0.4567,0.0239 2.92612,8.24978 3.28153,8.53758 0.35541,0.28781 8.91493,0.99302 9.03329,1.43477 z"
       transform="matrix(0.26425511,-0.01317487,0.01317487,0.26425511,-4.7275284,3.8566076)"
       inkscape:transform-center-x="-0.0027936229"
       inkscape:transform-center-y="-0.33648585" />
  </g>
</svg>
